<svg width="637" height="449" viewBox="0 0 637 449" fill="none" xmlns="http://www.w3.org/2000/svg">
<g filter="url(#filter0_d_7913_93300)">
<rect width="637" height="449" fill="#25265E"/>
<path d="M245.934 64.4375H249.522V57.3354H255.09V53.9205H249.522V50.2829H256.624V46.8679H245.934V64.4375ZM257.861 59.2409C257.861 62.5321 259.519 64.7097 262.513 64.7097C264.097 64.7097 265.26 64.0168 265.903 63.027V64.4375H269.294V52.0646H265.903V58.1026C265.903 60.5029 264.864 61.6165 263.355 61.6165C261.895 61.6165 261.251 60.5277 261.251 58.6717V52.0646H257.861V59.2409ZM272.557 64.4375H275.947V58.3995C275.947 56.0239 277.135 54.8856 278.694 54.8856C280.105 54.8856 280.872 55.9744 280.872 57.7561V64.4375H284.262V57.187C284.262 53.97 282.48 51.7924 279.486 51.7924C277.878 51.7924 276.591 52.4852 275.947 53.4751V52.0646H272.557V64.4375ZM299.163 46.8679H293.323V64.4375H296.911V58.6965H299.163C302.727 58.6965 305.325 56.1229 305.325 52.7822C305.325 49.4415 302.727 46.8679 299.163 46.8679ZM299.114 55.331H296.911V50.2334H299.114C300.747 50.2334 301.836 51.3469 301.836 52.7822C301.836 54.2174 300.747 55.331 299.114 55.331ZM307.38 64.4375H310.771V58.5232C310.771 56.4941 311.835 55.232 313.443 55.232C313.987 55.232 314.458 55.331 314.977 55.5042V52.0646C314.557 51.9408 314.185 51.9161 313.839 51.9161C312.453 51.9161 311.191 52.8317 310.771 54.0442V52.0646H307.38V64.4375ZM328.908 58.251C328.908 54.6381 325.988 51.7924 322.4 51.7924C318.812 51.7924 315.892 54.6381 315.892 58.251C315.892 61.8639 318.812 64.7097 322.4 64.7097C325.988 64.7097 328.908 61.8639 328.908 58.251ZM319.307 58.251C319.307 56.3456 320.618 54.9598 322.4 54.9598C324.182 54.9598 325.468 56.3456 325.468 58.251C325.468 60.1565 324.182 61.5422 322.4 61.5422C320.618 61.5422 319.307 60.1565 319.307 58.251ZM335.411 47.8825C335.411 46.6947 334.446 45.7296 333.234 45.7296C332.071 45.7296 331.081 46.6947 331.081 47.8825C331.081 49.0703 332.071 50.0354 333.234 50.0354C334.446 50.0354 335.411 49.0703 335.411 47.8825ZM334.941 52.0646H331.551V64.8334C331.551 66.3429 330.858 66.9121 329.596 66.9121C329.398 66.9121 329.101 66.8873 328.953 66.8626V69.7579C329.324 69.8321 329.819 69.8568 330.338 69.8568C332.813 69.8568 334.941 68.3968 334.941 65.3778V52.0646ZM350.243 60.4039H346.704C346.308 61.2453 345.269 61.7649 344.081 61.7649C341.977 61.7649 340.889 60.5029 340.74 59.0429H350.391C350.564 54.3907 347.57 51.7924 343.932 51.7924C340.171 51.7924 337.424 54.5391 337.424 58.2263C337.424 61.9877 340.121 64.7097 343.908 64.7097C347.05 64.7097 349.5 62.9033 350.243 60.4039ZM343.833 54.5391C344.996 54.5391 346.258 55.1578 346.679 56.8158H340.864C341.186 55.4547 342.274 54.5391 343.833 54.5391ZM364.912 59.711H361.398C360.928 60.8246 360.012 61.6412 358.577 61.6412C356.795 61.6412 355.484 60.3049 355.484 58.251C355.484 56.1971 356.795 54.8608 358.577 54.8608C360.012 54.8608 360.928 55.6775 361.398 56.791H364.912C364.244 53.9452 361.992 51.7924 358.577 51.7924C354.816 51.7924 352.069 54.6629 352.069 58.251C352.069 61.8392 354.816 64.7097 358.577 64.7097C361.992 64.7097 364.244 62.5568 364.912 59.711ZM375.187 64.3138V61.3195C374.791 61.468 374.346 61.5422 373.802 61.5422C372.342 61.5422 371.698 60.9483 371.698 59.4388V55.0341H375.187V52.0646H371.698V48.6249H368.308V52.0646H365.809V55.0341H368.308V60.107C368.308 63.126 370.411 64.586 373.034 64.586C373.975 64.586 374.643 64.487 375.187 64.3138ZM387.554 60.9483C387.554 59.0182 386.54 57.7314 384.115 57.1127L381.937 56.5188C381.195 56.3456 380.526 56.0734 380.526 55.3805C380.526 54.7866 381.12 54.4402 381.986 54.4402C382.729 54.4402 383.446 54.7619 383.62 55.7022H387.035C386.837 53.2276 384.758 51.7924 382.036 51.7924C378.943 51.7924 377.062 53.3266 377.062 55.4547C377.062 57.2612 378.052 58.7459 380.205 59.2904L382.531 59.8843C383.62 60.1565 384.09 60.4782 384.09 61.1216C384.09 61.7155 383.545 62.1114 382.481 62.1114C381.393 62.1114 380.452 61.5917 380.329 60.5029H376.79C376.914 62.928 379.19 64.7097 382.382 64.7097C385.377 64.7097 387.554 63.2744 387.554 60.9483ZM222.927 94.4375H226.317V85.0341H229.806V82.0646H226.317V80.8768C226.317 79.3673 226.961 78.7734 228.421 78.7734C228.965 78.7734 229.411 78.8476 229.806 78.9961V76.0018C229.262 75.8286 228.594 75.7296 227.654 75.7296C225.03 75.7296 222.927 77.4371 222.927 80.4561V82.0646H220.428V85.0341H222.927V94.4375ZM243.675 88.251C243.675 84.6381 240.755 81.7924 237.167 81.7924C233.579 81.7924 230.659 84.6381 230.659 88.251C230.659 91.8639 233.579 94.7097 237.167 94.7097C240.755 94.7097 243.675 91.8639 243.675 88.251ZM234.074 88.251C234.074 86.3456 235.385 84.9598 237.167 84.9598C238.949 84.9598 240.235 86.3456 240.235 88.251C240.235 90.1565 238.949 91.5422 237.167 91.5422C235.385 91.5422 234.074 90.1565 234.074 88.251ZM246.12 94.4375H249.51V88.5232C249.51 86.4941 250.574 85.232 252.183 85.232C252.727 85.232 253.197 85.331 253.717 85.5042V82.0646C253.296 81.9408 252.925 81.9161 252.578 81.9161C251.193 81.9161 249.931 82.8317 249.51 84.0442V82.0646H246.12V94.4375ZM265.079 99.6094L272.85 82.0646H269.113L265.822 90.0822L262.506 82.0646H258.794L263.991 93.7446L261.392 99.6094H265.079ZM286.304 88.251C286.304 84.6381 283.384 81.7924 279.795 81.7924C276.207 81.7924 273.287 84.6381 273.287 88.251C273.287 91.8639 276.207 94.7097 279.795 94.7097C283.384 94.7097 286.304 91.8639 286.304 88.251ZM276.702 88.251C276.702 86.3456 278.014 84.9598 279.795 84.9598C281.577 84.9598 282.864 86.3456 282.864 88.251C282.864 90.1565 281.577 91.5422 279.795 91.5422C278.014 91.5422 276.702 90.1565 276.702 88.251ZM288.6 89.2409C288.6 92.5321 290.258 94.7097 293.252 94.7097C294.836 94.7097 295.999 94.0168 296.642 93.027V94.4375H300.033V82.0646H296.642V88.1026C296.642 90.5029 295.603 91.6165 294.094 91.6165C292.634 91.6165 291.99 90.5277 291.99 88.6717V82.0646H288.6V89.2409ZM303.296 94.4375H306.686V88.5232C306.686 86.4941 307.751 85.232 309.359 85.232C309.903 85.232 310.374 85.331 310.893 85.5042V82.0646C310.473 81.9408 310.101 81.9161 309.755 81.9161C308.369 81.9161 307.107 82.8317 306.686 84.0442V82.0646H303.296V94.4375ZM324.296 76.8679H318.456V94.4375H322.044V88.6965H324.296C327.859 88.6965 330.458 86.1229 330.458 82.7822C330.458 79.4415 327.859 76.8679 324.296 76.8679ZM324.246 85.331H322.044V80.2334H324.246C325.88 80.2334 326.968 81.3469 326.968 82.7822C326.968 84.2174 325.88 85.331 324.246 85.331ZM344.423 88.251C344.423 84.6381 341.503 81.7924 337.914 81.7924C334.326 81.7924 331.406 84.6381 331.406 88.251C331.406 91.8639 334.326 94.7097 337.914 94.7097C341.503 94.7097 344.423 91.8639 344.423 88.251ZM334.821 88.251C334.821 86.3456 336.133 84.9598 337.914 84.9598C339.696 84.9598 340.983 86.3456 340.983 88.251C340.983 90.1565 339.696 91.5422 337.914 91.5422C336.133 91.5422 334.821 90.1565 334.821 88.251ZM346.867 94.4375H350.258V88.5232C350.258 86.4941 351.322 85.232 352.93 85.232C353.475 85.232 353.945 85.331 354.464 85.5042V82.0646C354.044 81.9408 353.673 81.9161 353.326 81.9161C351.94 81.9161 350.678 82.8317 350.258 84.0442V82.0646H346.867V94.4375ZM364.772 94.3138V91.3195C364.376 91.468 363.93 91.5422 363.386 91.5422C361.926 91.5422 361.283 90.9483 361.283 89.4388V85.0341H364.772V82.0646H361.283V78.6249H357.892V82.0646H355.393V85.0341H357.892V90.107C357.892 93.126 359.996 94.586 362.619 94.586C363.559 94.586 364.227 94.487 364.772 94.3138ZM368.502 94.4375H371.893V85.0341H375.382V82.0646H371.893V80.8768C371.893 79.3673 372.536 78.7734 373.996 78.7734C374.54 78.7734 374.986 78.8476 375.382 78.9961V76.0018C374.837 75.8286 374.169 75.7296 373.229 75.7296C370.606 75.7296 368.502 77.4371 368.502 80.4561V82.0646H366.003V85.0341H368.502V94.4375ZM389.25 88.251C389.25 84.6381 386.33 81.7924 382.742 81.7924C379.154 81.7924 376.234 84.6381 376.234 88.251C376.234 91.8639 379.154 94.7097 382.742 94.7097C386.33 94.7097 389.25 91.8639 389.25 88.251ZM379.649 88.251C379.649 86.3456 380.96 84.9598 382.742 84.9598C384.524 84.9598 385.811 86.3456 385.811 88.251C385.811 90.1565 384.524 91.5422 382.742 91.5422C380.96 91.5422 379.649 90.1565 379.649 88.251ZM391.695 94.4375H395.085V75.8781H391.695V94.4375ZM402.201 77.8825C402.201 76.6947 401.236 75.7296 400.024 75.7296C398.86 75.7296 397.871 76.6947 397.871 77.8825C397.871 79.0703 398.86 80.0354 400.024 80.0354C401.236 80.0354 402.201 79.0703 402.201 77.8825ZM398.341 94.4375H401.731V82.0646H398.341V94.4375ZM417.186 88.251C417.186 84.6381 414.266 81.7924 410.678 81.7924C407.09 81.7924 404.17 84.6381 404.17 88.251C404.17 91.8639 407.09 94.7097 410.678 94.7097C414.266 94.7097 417.186 91.8639 417.186 88.251ZM407.585 88.251C407.585 86.3456 408.896 84.9598 410.678 84.9598C412.46 84.9598 413.746 86.3456 413.746 88.251C413.746 90.1565 412.46 91.5422 410.678 91.5422C408.896 91.5422 407.585 90.1565 407.585 88.251Z" fill="white"/>
<g clip-path="url(#clip0_7913_93300)">
<path d="M123.85 180.987L118.871 173.045L123.921 169.506C128.767 170.623 131.377 170.159 135.807 167.028L135.186 173.107L123.85 180.987Z" fill="#E08878"/>
<path d="M119.198 184.27C115.477 188.236 106.799 201.177 107.904 203.392C109.4 206.394 115.634 194.42 124.208 185.515L123.665 178.873C121.747 177.091 117.886 173.865 117.779 175.219C117.647 176.912 109.596 181.815 109.596 181.815C109.596 181.815 96.0782 188.63 97.4097 190.65C98.7411 192.67 116.301 183.19 117.637 182.443C118.706 181.846 119.84 183.585 119.198 184.27Z" fill="#FCB7A0"/>
<path d="M116.487 175.537C116.183 179.41 122.712 181.059 126.014 181.399C127.097 180.023 127.653 176.657 121.22 174.204C121.42 173.733 121.73 172.686 121.372 172.267C122.13 171.921 123.713 170.99 123.983 170.036C126.614 170.649 132.623 171.055 135.608 167.781L135.846 183.389C148.159 169.253 147.233 165.527 138.152 160.185C133.471 157.433 121.971 163.528 119.398 165.275C116.825 167.022 116.867 170.695 116.487 175.537Z" fill="#FCB7A0"/>
<path d="M130.842 184.934C129.2 187.241 125.582 190.514 124.249 185.148C122.582 178.441 127.695 172.264 129.185 171.894C130.378 171.598 130.897 172.84 131.008 173.499C131.436 171.76 133.551 169.213 135 169.184C136.536 169.152 138.482 170.153 136.085 178.977L136.187 181.176C136.325 181.85 136.455 182.458 136.267 182.89C134.715 186.453 131.498 185.701 130.842 184.934Z" fill="#FCB7A0"/>
<path d="M130.848 184.946C129.205 187.253 125.587 190.525 124.254 185.159C122.588 178.452 127.701 172.276 129.191 171.905C130.383 171.609 130.903 172.852 131.014 173.51C131.392 171.704 133.527 169.183 135.006 169.195C136.44 169.206 136.516 170.891 134.675 178.388L135.007 180.363C134.599 179.357 134.544 178.92 134.675 178.388C136.516 170.891 136.44 169.206 135.006 169.195C133.527 169.183 131.392 171.704 131.014 173.51C129.603 178.945 129.55 181.48 130.848 184.946Z" fill="#FCB7A0"/>
<path d="M130.848 184.946C129.205 187.253 125.587 190.525 124.254 185.159C122.588 178.452 127.701 172.276 129.191 171.905C130.383 171.609 130.903 172.852 131.014 173.51M130.848 184.946C131.503 185.713 134.585 186.463 136.137 182.9M130.848 184.946C129.55 181.48 129.603 178.945 131.014 173.51M131.014 173.51C131.392 171.704 133.527 169.183 135.006 169.195C136.44 169.206 136.516 170.891 134.675 178.388M134.675 178.388C134.544 178.92 134.599 179.357 135.007 180.363L134.675 178.388Z" stroke="#E08878" stroke-width="0.473981"/>
<path d="M116.485 175.535C116.181 179.408 122.71 181.057 126.012 181.397C127.095 180.021 127.651 176.655 121.218 174.202C121.418 173.731 121.728 172.684 121.37 172.265C122.128 171.919 123.711 170.988 123.981 170.034L119.274 165.377C116.701 167.123 116.865 170.693 116.485 175.535Z" fill="#FCB7A0"/>
<path d="M119.378 165.498C117.02 166.673 116.865 170.693 116.485 175.535C116.181 179.408 122.71 181.057 126.012 181.397C127.095 180.021 127.651 176.655 121.218 174.202C121.418 173.731 121.728 172.684 121.37 172.265C122.128 171.919 123.711 170.988 123.981 170.034" stroke="#E08878" stroke-width="0.473981"/>
<path d="M137.186 156.942C134.889 158.906 133.463 159.607 132.892 159.643C136.139 163.795 142.887 171.225 145.066 168.278C147.246 165.331 153.608 160.828 156.516 158.945L150.881 152.654L143.655 150.889C141.376 153.101 138.7 155.649 137.186 156.942Z" fill="#FCB7A0"/>
<path d="M121.863 180.306C121.48 178.977 121.608 176.73 125.181 178.374" stroke="#E08878" stroke-width="0.473981" stroke-linecap="round"/>
<path d="M132.059 172.721C132.709 173.678 134.061 173.671 134.379 173.469C134.927 172.946 135.079 171.938 135.07 171.328M126.592 175.42C127.214 176.738 128.456 176.699 128.999 176.515C129.392 175.829 130.098 174.606 129.875 173.116" stroke="#E08878" stroke-width="0.473981"/>
<path d="M137.299 156.827C136.872 157.282 136.554 157.333 136.554 157.333L137.191 155.539C137.191 155.539 139.217 151.714 140.828 150.223C140.969 150.093 141.067 149.917 141.132 149.703L165.952 156.354C162.435 160.126 158.153 158.612 155.877 160.557C154.436 161.788 150.759 164.394 150.759 164.394C149.115 165.483 148.577 166.059 146.691 166.737C146.691 166.737 147.584 165.492 148.363 164.873C145.543 158.43 140.371 156.832 137.299 156.827Z" fill="#1A4E66"/>
<path d="M137.299 156.827C136.872 157.282 136.554 157.333 136.554 157.333L137.191 155.539C137.191 155.539 139.217 151.714 140.828 150.223C140.969 150.093 141.067 149.917 141.132 149.703L144.363 150.569C142.445 152.262 141.449 155.842 141.176 157.584C139.751 157.032 138.392 156.829 137.299 156.827Z" fill="#0F445C"/>
<path d="M156.632 159.922C151.668 151.878 147.833 151.152 141.229 149.765" stroke="#0F3644" stroke-width="0.473981"/>
<path d="M156.528 159.801C152.573 164.022 146.678 166.958 146.696 166.733C146.714 166.508 148.431 164.83 148.431 164.83C146.859 161.761 144.146 157.357 137.165 156.81C137.165 156.81 136.558 157.329 136.437 157.432C136.315 157.536 136.739 156.754 136.836 156.671" stroke="#0F3644" stroke-width="0.473981"/>
<path d="M155.827 158.733C153.722 160.531 149.219 164.128 148.041 164.126M154.721 156.947C152.582 158.705 148.095 162.273 147.263 162.479M153.268 155.247C151.083 157.115 146.594 160.909 146.122 161.144M145.084 159.929C145.421 158.992 149.441 155.509 151.603 153.722M143.475 158.784C143.673 157.347 147.511 154.07 149.733 152.351M141.744 157.742C141.943 156.229 145.244 153.181 147.418 151.386M139.978 157.15C141.838 154.189 143.854 151.934 145.06 150.754M138.42 156.801C138.616 155.375 141.287 151.982 142.852 150.162M141.462 149.79C139.929 151.52 137.192 155.119 136.565 157.336" stroke="#0F3644" stroke-width="0.473981"/>
<path d="M78.8169 206.84L86.5167 201.017C90.1712 208.049 97.0729 222.308 95.4438 223.091C93.4074 224.069 89.027 227.507 87.122 229.587C85.598 231.251 81.1803 233.676 79.8771 234.022L78.8169 206.84Z" fill="#EC7B86"/>
<path d="M92.9898 205.04C92.9926 200.309 88.772 200.447 86.6614 201.107L83.9016 206.532C78.5913 210.087 81.5752 211.479 83.731 211.731C81.5325 213.955 83.8759 215.765 85.3224 216.392C83.7125 218.982 85.8647 220.334 87.1879 220.612C85.45 223.408 88.7595 224.649 94.8727 223.348C99.7632 222.307 98.3208 218.894 96.9882 217.318C99.4954 215.122 97.4836 212.253 96.1644 211.093C97.3891 207.285 94.5583 205.471 92.9898 205.04Z" fill="#FF9BA5"/>
<path d="M64.369 225.809C63.2428 227.884 54.5452 232.773 50.21 235.043L45.5461 252.45L60.3621 253.922C64.6095 248.401 75.1396 238.352 79.8737 234.017L82.5016 219.941C84.1208 215.235 81.5423 210.98 80.0507 209.441C80.4165 208.852 80.028 207.726 79.788 207.237C80.7139 207.323 82.1306 206.313 82.7232 205.797C92.015 212.184 93.3031 205.844 92.1814 205.351C91.0598 204.858 85.133 199.95 84.0471 199.071C82.9611 198.192 75.7545 202.894 73.3522 204.462C70.95 206.029 68.1344 211.216 67.8723 216.561C67.6103 221.907 65.7768 223.216 64.369 225.809Z" fill="#FF9BA5"/>
<path d="M50.6225 234.81C54.9577 232.54 63.2503 227.885 64.3766 225.81C65.7844 223.216 67.6178 221.908 67.8799 216.562C68.142 211.216 70.9576 206.03 73.3598 204.462C75.762 202.895 82.9687 198.193 84.0546 199.072C85.1405 199.951 91.0674 204.859 92.189 205.352C93.3107 205.845 92.0225 212.185 82.7308 205.798C82.1382 206.314 80.7215 207.324 79.7956 207.238C80.0356 207.727 80.4241 208.853 80.0582 209.441C81.5499 210.981 84.4228 215.418 82.8035 220.125" stroke="#EC7B86" stroke-width="0.642797"/>
<path d="M82.9137 212.076C84.2222 211.393 87.8813 209.532 88.8199 208.81M84.7437 216.682C89.1064 214.92 91.893 213.657 96.1544 211.124M86.7009 220.754C90.7178 219.99 93.391 219.281 96.9783 217.349" stroke="#EC7B86" stroke-width="0.642797"/>
<path d="M88.7229 203.037C88.1608 203.503 87.1361 204.539 87.5338 204.95C87.9316 205.36 89.9799 206.266 90.9544 206.668" stroke="#EC7B86" stroke-width="0.514238" stroke-linecap="round"/>
<path d="M57.8954 230.554C58.433 230.121 58.7631 229.918 58.7631 229.918L56.2499 230.26L50.7144 233.182L45.2927 253.416L62.7076 258.082C63.5969 256.56 64.3294 254.207 65.0428 252.657C65.4882 251.689 68.7807 247.076 68.7807 247.076C70.0072 245.321 70.6392 244.299 71.3208 242.211C71.3208 242.211 69.8731 243.555 69.1607 244.373C60.7136 240.276 58.1928 234.099 57.8954 230.554Z" fill="#D7E0DC"/>
<path d="M57.9191 230.619L58.7625 229.919L56.3201 230.238C56.3201 230.238 53.4112 231.619 50.7227 233.157L45.2939 253.417L48.8061 254.358C49.5296 249.911 52.7652 238.365 55.3623 236.375L55.9909 237.99C57.1457 236.689 57.9228 236.23 59.6775 235.997C58.6075 234.107 58.4759 233.006 57.9191 230.619Z" fill="#BCC5C1"/>
<path d="M54.0049 231.656C56.1919 240.962 59.4658 244.312 68.1466 247.749" stroke="#B3BCB8" stroke-width="0.642797"/>
<path d="M54.4573 233.567L49.8547 236.667M55.3643 236.375C54.0477 237.008 51.4754 238.481 48.7759 240.557M56.5101 239.127C54.3379 240.513 49.354 244.142 47.2201 246.364M57.8745 241.199C55.9204 243.249 47.5678 251.156 46.085 251.704M59.7719 243.399C58.3133 245.212 50.653 253.092 48.9836 254.341C48.9415 254.373 48.9032 254.4 48.8689 254.423M62.1266 244.862C61.0847 246.867 55.5375 254.758 53.6444 255.703M64.4814 246.326C63.7324 247.968 59.7371 254.701 57.494 256.734M66.8719 247.403C65.9334 249.132 62.0333 255.508 60.172 257.452" stroke="#B3BCB8" stroke-width="0.642797"/>
</g>
<path d="M45.9851 284.625H48.7381V278.948H49.4216L54.0352 284.625H57.3577L52.5163 278.644C54.301 278.075 55.2883 276.936 55.2883 275.132C55.2883 272.892 53.6744 271.145 51.1493 271.145H45.9851V284.625ZM48.7381 276.594V273.67H50.8265C51.8518 273.67 52.5543 274.202 52.5543 275.132C52.5543 276.043 51.8518 276.594 50.8265 276.594H48.7381ZM67.0945 279.878C67.0945 277.107 64.8541 274.923 62.1011 274.923C59.3482 274.923 57.1078 277.107 57.1078 279.878C57.1078 282.65 59.3482 284.834 62.1011 284.834C64.8541 284.834 67.0945 282.65 67.0945 279.878ZM59.7279 279.878C59.7279 278.417 60.7341 277.353 62.1011 277.353C63.4681 277.353 64.4554 278.417 64.4554 279.878C64.4554 281.34 63.4681 282.404 62.1011 282.404C60.7341 282.404 59.7279 281.34 59.7279 279.878ZM78.2165 280.999H75.5204C75.1597 281.853 74.4572 282.48 73.356 282.48C71.989 282.48 70.9828 281.454 70.9828 279.878C70.9828 278.303 71.989 277.277 73.356 277.277C74.4572 277.277 75.1597 277.904 75.5204 278.758H78.2165C77.7038 276.575 75.9761 274.923 73.356 274.923C70.4701 274.923 68.3627 277.126 68.3627 279.878C68.3627 282.631 70.4701 284.834 73.356 284.834C75.9761 284.834 77.7038 283.182 78.2165 280.999ZM79.9836 284.625H82.5847V280.258L86.4579 284.625H89.6665L85.0339 279.404L88.7932 275.132H85.6605L82.5847 278.625V270.385H79.9836V284.625ZM93.4574 284.093C93.6852 283.714 93.8371 283.296 93.8371 282.878C93.8371 281.834 93.0017 280.98 91.9575 280.98C90.8943 280.98 90.0589 281.834 90.0589 282.878C90.0589 283.714 90.6095 284.378 91.179 284.625L89.7931 287.511H91.3309L93.4574 284.093ZM104.939 271.145H100.459V284.625H103.212V280.22H104.939C107.673 280.22 109.667 278.246 109.667 275.683C109.667 273.119 107.673 271.145 104.939 271.145ZM104.902 277.638H103.212V273.727H104.902C106.155 273.727 106.99 274.581 106.99 275.683C106.99 276.784 106.155 277.638 104.902 277.638ZM110.451 279.878C110.451 282.575 112.388 284.834 114.913 284.834C116.223 284.834 117.229 284.169 117.647 283.562V284.625H120.248V275.132H117.647V276.195C117.229 275.588 116.223 274.923 114.913 274.923C112.388 274.923 110.451 277.182 110.451 279.878ZM117.856 279.878C117.856 281.359 116.887 282.461 115.463 282.461C114.039 282.461 113.071 281.359 113.071 279.878C113.071 278.398 114.039 277.296 115.463 277.296C116.887 277.296 117.856 278.398 117.856 279.878ZM122.776 288.593H125.378V283.562C125.814 284.169 126.82 284.834 128.131 284.834C130.656 284.834 132.592 282.575 132.592 279.878C132.592 277.182 130.656 274.923 128.131 274.923C126.82 274.923 125.814 275.588 125.378 276.195V275.132H122.776V288.593ZM129.953 279.878C129.953 281.359 128.985 282.461 127.561 282.461C126.137 282.461 125.169 281.359 125.169 279.878C125.169 278.398 126.137 277.296 127.561 277.296C128.985 277.296 129.953 278.398 129.953 279.878ZM143.722 281.53H141.007C140.703 282.176 139.905 282.575 138.994 282.575C137.38 282.575 136.545 281.606 136.431 280.486H143.836C143.968 276.917 141.671 274.923 138.88 274.923C135.994 274.923 133.887 277.031 133.887 279.859C133.887 282.745 135.956 284.834 138.861 284.834C141.272 284.834 143.152 283.448 143.722 281.53ZM138.804 277.031C139.697 277.031 140.665 277.505 140.988 278.777H136.526C136.773 277.733 137.608 277.031 138.804 277.031ZM145.73 284.625H148.331V280.087C148.331 278.53 149.148 277.562 150.382 277.562C150.8 277.562 151.16 277.638 151.559 277.771V275.132C151.236 275.037 150.951 275.018 150.686 275.018C149.622 275.018 148.654 275.721 148.331 276.651V275.132H145.73V284.625ZM65.0074 311.625H68.4249L64.9695 308.283L67.6465 305.113H64.5328L63.2607 306.651L61.0583 304.505C62.3684 303.784 63.3556 302.891 63.3556 301.278C63.3556 299.569 61.8747 297.917 59.5964 297.917C57.375 297.917 55.7802 299.493 55.7802 301.297C55.7802 302.493 56.4827 303.366 57.2421 304.126C55.9131 304.961 54.8499 306.024 54.8499 307.79C54.8499 310.011 56.3688 311.834 59.3306 311.834C60.8874 311.834 62.0646 311.283 63.3746 310.049L65.0074 311.625ZM58.2674 301.316C58.2674 300.556 58.8749 300.119 59.5584 300.119C60.2419 300.119 60.7925 300.613 60.7925 301.392C60.7925 302.17 60.3748 302.55 59.5015 302.986L59.4635 303.005C58.78 302.398 58.2674 301.98 58.2674 301.316ZM57.394 307.866C57.394 307.22 57.7737 306.48 58.9319 305.758L61.7038 308.435C60.8495 309.214 60.109 309.537 59.3116 309.537C58.4193 309.537 57.394 309.043 57.394 307.866ZM72.8774 307.448C72.9914 309.669 74.833 311.853 78.0606 311.853C80.8896 311.853 82.7502 310.144 82.7502 307.847C82.7502 305.758 81.4402 304.372 79.2568 303.765L77.6809 303.328C76.5797 303.005 75.9722 302.55 75.9912 301.714C76.0101 300.917 76.7696 300.461 77.7379 300.461C78.5353 300.461 79.4276 300.879 79.7314 302.018H82.4654C82.3705 300.006 80.6427 297.917 77.7379 297.917C75.0419 297.917 73.2002 299.417 73.2192 301.904C73.2382 303.955 74.6242 305.284 76.7506 305.891L78.1746 306.309C79.4656 306.67 79.9782 307.22 79.9782 307.942C79.9782 308.796 79.1618 309.309 78.0606 309.309C76.8645 309.309 75.8203 308.663 75.6304 307.448H72.8774ZM93.9856 307.999H91.2896C90.9289 308.853 90.2264 309.48 89.1252 309.48C87.7582 309.48 86.752 308.454 86.752 306.878C86.752 305.303 87.7582 304.277 89.1252 304.277C90.2264 304.277 90.9289 304.904 91.2896 305.758H93.9856C93.473 303.575 91.7453 301.923 89.1252 301.923C86.2393 301.923 84.1319 304.126 84.1319 306.878C84.1319 309.631 86.2393 311.834 89.1252 311.834C91.7453 311.834 93.473 310.182 93.9856 307.999ZM98.7147 298.923C98.7147 298.012 97.9742 297.272 97.0439 297.272C96.1515 297.272 95.3921 298.012 95.3921 298.923C95.3921 299.835 96.1515 300.575 97.0439 300.575C97.9742 300.575 98.7147 299.835 98.7147 298.923ZM95.7528 311.625H98.3539V302.132H95.7528V311.625ZM108.484 308.948C108.484 307.467 107.706 306.48 105.845 306.005L104.174 305.549C103.605 305.417 103.092 305.208 103.092 304.676C103.092 304.22 103.548 303.955 104.212 303.955C104.782 303.955 105.332 304.201 105.465 304.923H108.085C107.933 303.024 106.339 301.923 104.25 301.923C101.877 301.923 100.434 303.1 100.434 304.733C100.434 306.119 101.193 307.258 102.845 307.676L104.63 308.132C105.465 308.34 105.826 308.587 105.826 309.081C105.826 309.537 105.408 309.84 104.592 309.84C103.756 309.84 103.035 309.442 102.94 308.606H100.225C100.32 310.467 102.067 311.834 104.516 311.834C106.813 311.834 108.484 310.733 108.484 308.948ZM117.996 308.948C117.996 307.467 117.217 306.48 115.357 306.005L113.686 305.549C113.116 305.417 112.604 305.208 112.604 304.676C112.604 304.22 113.059 303.955 113.724 303.955C114.293 303.955 114.844 304.201 114.977 304.923H117.597C117.445 303.024 115.85 301.923 113.762 301.923C111.388 301.923 109.946 303.1 109.946 304.733C109.946 306.119 110.705 307.258 112.357 307.676L114.141 308.132C114.977 308.34 115.338 308.587 115.338 309.081C115.338 309.537 114.92 309.84 114.103 309.84C113.268 309.84 112.547 309.442 112.452 308.606H109.737C109.832 310.467 111.578 311.834 114.028 311.834C116.325 311.834 117.996 310.733 117.996 308.948ZM129.235 306.878C129.235 304.107 126.995 301.923 124.242 301.923C121.489 301.923 119.248 304.107 119.248 306.878C119.248 309.65 121.489 311.834 124.242 311.834C126.995 311.834 129.235 309.65 129.235 306.878ZM121.868 306.878C121.868 305.417 122.875 304.353 124.242 304.353C125.609 304.353 126.596 305.417 126.596 306.878C126.596 308.34 125.609 309.404 124.242 309.404C122.875 309.404 121.868 308.34 121.868 306.878ZM131.111 311.625H133.712V307.087C133.712 305.53 134.528 304.562 135.762 304.562C136.18 304.562 136.541 304.638 136.939 304.771V302.132C136.617 302.037 136.332 302.018 136.066 302.018C135.003 302.018 134.035 302.721 133.712 303.651V302.132H131.111V311.625ZM146.067 308.948C146.067 307.467 145.288 306.48 143.428 306.005L141.757 305.549C141.187 305.417 140.675 305.208 140.675 304.676C140.675 304.22 141.13 303.955 141.795 303.955C142.365 303.955 142.915 304.201 143.048 304.923H145.668C145.516 303.024 143.921 301.923 141.833 301.923C139.46 301.923 138.017 303.1 138.017 304.733C138.017 306.119 138.776 307.258 140.428 307.676L142.213 308.132C143.048 308.34 143.409 308.587 143.409 309.081C143.409 309.537 142.991 309.84 142.175 309.84C141.339 309.84 140.618 309.442 140.523 308.606H137.808C137.903 310.467 139.65 311.834 142.099 311.834C144.396 311.834 146.067 310.733 146.067 308.948Z" fill="white"/>
<g clip-path="url(#clip1_7913_93300)">
<path d="M321.23 193.259L351.711 181.98C355.128 182.223 356.829 182.068 360.254 182.589C358.015 187.317 358.002 189.899 355.704 194.959C343.792 221.188 331.352 234.186 307.755 246.109C282.928 240.838 264.97 214.777 264.135 212.886C263.3 210.996 259.617 209.758 259.871 209.189C260.126 208.619 321.23 193.259 321.23 193.259Z" fill="#FFABDD"/>
<path d="M319.731 189.524L350.212 178.245C353.629 178.489 355.33 178.334 358.754 178.855C356.516 183.583 356.502 186.165 354.204 191.225C342.292 217.454 329.853 230.451 306.255 242.375C281.429 237.104 263.471 211.043 262.635 209.152C261.8 207.261 258.117 206.024 258.372 205.454C258.627 204.885 319.731 189.524 319.731 189.524Z" fill="#FF81CC"/>
<path d="M256.833 203.458C280.847 199.32 299.949 173.895 306.498 161.7C325.315 169.008 335.879 170.34 354.747 168.811C352.089 172.969 353.015 173.9 351.628 178.746C341.797 213.095 318.724 230.654 307.735 235.92C277.432 231.192 262.538 208.21 262.454 206.902C262.386 205.855 258.678 204.169 256.833 203.458Z" fill="#FFABDD" stroke="#FFABDD" stroke-width="0.176434" stroke-linecap="square"/>
<path d="M317.031 179.68C310.251 189.21 291.994 209.94 286.921 212.753" stroke="white" stroke-width="1.44416" stroke-linecap="round"/>
<path d="M329.29 186.209C322.51 195.739 303.354 217.972 298.848 222.032" stroke="white" stroke-width="1.44416" stroke-linecap="round"/>
<path d="M332.27 197.339C321.467 193.3 307.956 186.027 303.256 183.578" stroke="white" stroke-width="1.44416" stroke-linecap="round"/>
<path d="M322.732 211.885C311.697 207.759 294.697 199.012 291.874 197.037" stroke="white" stroke-width="1.44416" stroke-linecap="round"/>
<path d="M314.492 199.291C313.083 201.129 310.956 201.427 309.788 200.532C308.621 199.638 308.355 197.507 309.764 195.668C311.172 193.829 313.299 193.532 314.467 194.426C315.634 195.321 315.9 197.452 314.492 199.291Z" stroke="white" stroke-width="1.98075"/>
<path d="M288.652 206.276C286.812 207.684 284.682 207.416 283.788 206.248C282.895 205.08 283.194 202.953 285.034 201.545C286.873 200.138 289.004 200.406 289.898 201.574C290.791 202.742 290.492 204.869 288.652 206.276Z" stroke="white" stroke-width="1.98075"/>
<path d="M314.445 220.705C313.001 222.517 310.869 222.774 309.719 221.857C308.569 220.941 308.343 218.805 309.787 216.993C311.23 215.182 313.363 214.925 314.513 215.841C315.663 216.758 315.889 218.894 314.445 220.705Z" stroke="white" stroke-width="1.98075"/>
<path d="M324.326 186.83C322.883 188.642 320.751 188.899 319.6 187.982C318.45 187.066 318.225 184.93 319.668 183.118C321.112 181.307 323.244 181.05 324.394 181.966C325.544 182.883 325.77 185.019 324.326 186.83Z" stroke="white" stroke-width="1.98075"/>
<path d="M333.555 185.678L335.263 194.923M329.236 192.272L340.003 188.619" stroke="#FF004B" stroke-width="1.98075" stroke-linecap="round"/>
<path d="M298.553 186.207L299.828 195.52M293.931 192.592L304.856 189.444" stroke="#FF004B" stroke-width="1.98075" stroke-linecap="round"/>
<path d="M297.633 207.335C298.212 211.49 298.577 213.568 299.34 216.579M293.314 213.928C297.579 212.625 299.943 211.825 304.08 210.275" stroke="#FF004B" stroke-width="1.98075" stroke-linecap="round"/>
<path d="M308.784 173.917C309.181 178.094 309.461 179.069 310.092 182.11M304.187 179.2C308.505 178.083 310.301 177.747 314.502 176.378" stroke="#FF004B" stroke-width="1.98075" stroke-linecap="round"/>
</g>
<path d="M258.825 289.805H261.597V278.945H265.223V276.325H255.237V278.945H258.825V289.805ZM269.714 277.103C269.714 276.192 268.973 275.451 268.043 275.451C267.151 275.451 266.391 276.192 266.391 277.103C266.391 278.014 267.151 278.755 268.043 278.755C268.973 278.755 269.714 278.014 269.714 277.103ZM266.752 289.805H269.353V280.312H266.752V289.805ZM281.097 286.178H278.401C278.04 287.033 277.338 287.659 276.237 287.659C274.87 287.659 273.863 286.634 273.863 285.058C273.863 283.482 274.87 282.457 276.237 282.457C277.338 282.457 278.04 283.084 278.401 283.938H281.097C280.584 281.755 278.857 280.103 276.237 280.103C273.351 280.103 271.243 282.305 271.243 285.058C271.243 287.811 273.351 290.014 276.237 290.014C278.857 290.014 280.584 288.362 281.097 286.178ZM289.344 289.805H292.115V278.945H295.742V276.325H285.755V278.945H289.344V289.805ZM295.05 285.058C295.05 287.754 296.987 290.014 299.512 290.014C300.822 290.014 301.828 289.349 302.246 288.741V289.805H304.847V280.312H302.246V281.375C301.828 280.767 300.822 280.103 299.512 280.103C296.987 280.103 295.05 282.362 295.05 285.058ZM302.455 285.058C302.455 286.539 301.486 287.64 300.062 287.64C298.638 287.64 297.67 286.539 297.67 285.058C297.67 283.577 298.638 282.476 300.062 282.476C301.486 282.476 302.455 283.577 302.455 285.058ZM316.622 286.178H313.926C313.565 287.033 312.862 287.659 311.761 287.659C310.394 287.659 309.388 286.634 309.388 285.058C309.388 283.482 310.394 282.457 311.761 282.457C312.862 282.457 313.565 283.084 313.926 283.938H316.622C316.109 281.755 314.381 280.103 311.761 280.103C308.875 280.103 306.768 282.305 306.768 285.058C306.768 287.811 308.875 290.014 311.761 290.014C314.381 290.014 316.109 288.362 316.622 286.178ZM324.868 289.805H327.64V278.945H331.267V276.325H321.28V278.945H324.868V289.805ZM340.505 285.058C340.505 282.286 338.265 280.103 335.512 280.103C332.759 280.103 330.519 282.286 330.519 285.058C330.519 287.83 332.759 290.014 335.512 290.014C338.265 290.014 340.505 287.83 340.505 285.058ZM333.139 285.058C333.139 283.596 334.145 282.533 335.512 282.533C336.879 282.533 337.866 283.596 337.866 285.058C337.866 286.52 336.879 287.583 335.512 287.583C334.145 287.583 333.139 286.52 333.139 285.058ZM351.608 286.71H348.893C348.59 287.355 347.792 287.754 346.881 287.754C345.267 287.754 344.432 286.786 344.318 285.666H351.722C351.855 282.096 349.558 280.103 346.767 280.103C343.881 280.103 341.774 282.21 341.774 285.039C341.774 287.925 343.843 290.014 346.748 290.014C349.159 290.014 351.039 288.628 351.608 286.71ZM346.691 282.21C347.583 282.21 348.552 282.685 348.874 283.957H344.413C344.659 282.913 345.495 282.21 346.691 282.21ZM361.249 287.128C361.249 285.647 360.471 284.659 358.61 284.185L356.94 283.729C356.37 283.596 355.857 283.387 355.857 282.856C355.857 282.4 356.313 282.134 356.978 282.134C357.547 282.134 358.098 282.381 358.231 283.103H360.851C360.699 281.204 359.104 280.103 357.015 280.103C354.642 280.103 353.199 281.28 353.199 282.913C353.199 284.299 353.959 285.438 355.611 285.856L357.395 286.311C358.231 286.52 358.591 286.767 358.591 287.261C358.591 287.716 358.174 288.02 357.357 288.02C356.522 288.02 355.8 287.621 355.705 286.786H352.99C353.085 288.647 354.832 290.014 357.281 290.014C359.579 290.014 361.249 288.912 361.249 287.128Z" fill="white"/>
<g clip-path="url(#clip2_7913_93300)">
<path d="M520.141 183.945L555.982 190.116L555.195 219.524L520.141 218.605C519.554 205.069 518.772 197.48 520.141 183.945Z" fill="#6677DC"/>
<path d="M496.774 196.547L520.274 183.812C519.4 202.086 520.736 211.85 521.719 229.632H497.037L496.774 196.547Z" fill="#778AF7"/>
<path d="M555.827 196.016C555.827 204.595 539.649 207.666 528.21 207.666C516.771 207.666 496.711 206.321 496.711 197.742C495.369 199.875 518.717 180.482 528.21 166.242C539.649 166.242 555.827 187.437 555.827 196.016Z" fill="url(#paint0_linear_7913_93300)"/>
<path d="M537.078 205.868C537.078 205.868 554.609 190.626 556.771 190.376C558.932 190.127 557.997 225.049 556.771 227.662C555.544 230.275 538.391 247.224 537.865 246.568C537.34 245.911 537.078 205.868 537.078 205.868Z" fill="#6B7FF3"/>
<path d="M536.553 204.163C544.362 198.648 548.589 195.545 555.721 189.984L556.771 190.378C550.72 195.911 546.163 199.379 537.078 205.87L536.553 204.163Z" fill="#5C70EA"/>
<path d="M493.885 197.341C492.966 196.947 518.567 183.508 518.567 183.508L520.143 183.902L496.773 197.866C496.773 197.866 494.804 197.735 493.885 197.341Z" fill="#5C70EA"/>
<path d="M527.101 152.698C528.676 151.648 567.932 157.031 567.932 157.031L556.772 190.378L518.436 183.551C522.046 171.594 525.526 153.749 527.101 152.698Z" fill="#8395FF"/>
<path d="M516.909 171.474C516.252 172.262 512.445 172.262 510.87 171.868C509.294 171.474 509.084 163.36 514.546 157.689C521.373 150.599 533.583 150.074 538.965 159.921C544.348 169.767 534.108 178.039 529.119 178.826C525.343 179.423 531.482 186.572 529.119 188.148C526.756 189.723 525.311 189.329 524.393 189.198C523.474 189.066 517.024 176.911 522.292 175.019C535.814 170.161 532.664 160.577 524.918 161.233C518.721 161.759 517.566 170.686 516.909 171.474Z" fill="#EFCD1B" stroke="#F0C024" stroke-width="1.0503"/>
<circle cx="529.12" cy="196.55" r="5.25152" fill="#EFCD1B" stroke="#F0C024" stroke-width="1.0503"/>
<path d="M567.931 157.031C567.931 157.031 569.769 158.082 569.638 158.607C569.506 159.132 562.905 178.104 558.02 190.378C557.714 191.148 557.495 191.954 557.495 191.954L556.771 190.378L555.458 190.247L567.931 157.031Z" fill="#7585E1"/>
<path d="M493.884 197.338C494.278 196.682 537.078 205.872 537.078 205.872C537.078 205.872 541.148 244.733 537.866 246.571C534.583 248.409 496.247 238.038 494.935 236.331C493.622 234.624 493.491 197.995 493.884 197.338Z" fill="#8395FF"/>
<path d="M496.772 196.547C512.503 199.999 520.803 201.676 536.552 204.162L537.078 205.868C520.02 203.363 510.558 201.49 493.884 197.335L496.772 196.547Z" fill="#5C70EA"/>
<path d="M508.457 200.749C509.032 199.684 509.507 199.305 510.032 199.305L518.566 201.011C517.306 200.801 516.947 201.93 516.991 202.587C516.058 218.151 516.54 227.23 517.372 242.922L517.385 243.155C513.814 243.995 509.551 241.842 508.457 240.792C507.933 228.04 507.844 201.885 508.457 200.749Z" fill="#91D5DD"/>
<path d="M550.34 195.892C549.912 194.759 549.42 195.104 548.895 195.104L542.987 199.568C543.906 199.699 544.355 199.851 544.563 200.487C546.398 206.098 547.515 237.354 546.461 239.024L546.401 239.086C546.422 239.075 546.442 239.055 546.461 239.024L552.703 232.652C553.563 232.747 553.517 204.31 550.34 195.892Z" fill="#91D5DD"/>
<path d="M501.12 238.603C509.607 240.237 533.204 221.399 537.27 205.938C538.364 206.774 540.506 243.588 538.133 246.499C536.862 248.059 523.894 244.916 517.421 243.047C513.538 243.91 510.086 241.896 508.36 240.889L501.12 238.603C500.775 238.536 500.454 238.436 500.161 238.3L501.12 238.603Z" fill="#AFBBFF" fill-opacity="0.24"/>
</g>
<path d="M462.75 289.805H465.503V284.356H469.775V281.736H465.503V278.945H470.952V276.325H462.75V289.805ZM481.227 285.058C481.227 282.286 478.987 280.103 476.234 280.103C473.481 280.103 471.24 282.286 471.24 285.058C471.24 287.83 473.481 290.014 476.234 290.014C478.987 290.014 481.227 287.83 481.227 285.058ZM473.86 285.058C473.86 283.596 474.867 282.533 476.234 282.533C477.601 282.533 478.588 283.596 478.588 285.058C478.588 286.52 477.601 287.583 476.234 287.583C474.867 287.583 473.86 286.52 473.86 285.058ZM483.103 289.805H485.704V285.267C485.704 283.71 486.52 282.742 487.754 282.742C488.172 282.742 488.533 282.818 488.931 282.951V280.312C488.609 280.217 488.324 280.198 488.058 280.198C486.995 280.198 486.026 280.9 485.704 281.831V280.312H483.103V289.805ZM490.593 289.805H493.194V285.172C493.194 283.349 493.973 282.476 495.093 282.476C496.118 282.476 496.574 283.33 496.574 284.735V289.805H499.175V285.172C499.175 283.349 499.953 282.476 501.074 282.476C502.099 282.476 502.554 283.33 502.554 284.735V289.805H505.156V284.299C505.156 281.736 503.864 280.103 501.605 280.103C500.523 280.103 499.251 280.672 498.662 281.85C498.093 280.748 497.105 280.103 495.719 280.103C494.561 280.103 493.707 280.653 493.194 281.394V280.312H490.593V289.805ZM515.652 289.805H518.101L523.683 276.325H520.645L516.886 285.685L513.07 276.325H510.089L515.652 289.805ZM522.896 285.058C522.896 287.754 524.833 290.014 527.358 290.014C528.668 290.014 529.674 289.349 530.092 288.741V289.805H532.693V280.312H530.092V281.375C529.674 280.767 528.668 280.103 527.358 280.103C524.833 280.103 522.896 282.362 522.896 285.058ZM530.301 285.058C530.301 286.539 529.332 287.64 527.908 287.64C526.484 287.64 525.516 286.539 525.516 285.058C525.516 283.577 526.484 282.476 527.908 282.476C529.332 282.476 530.301 283.577 530.301 285.058ZM535.222 289.805H537.823V275.565H535.222V289.805ZM543.282 277.103C543.282 276.192 542.542 275.451 541.611 275.451C540.719 275.451 539.96 276.192 539.96 277.103C539.96 278.014 540.719 278.755 541.611 278.755C542.542 278.755 543.282 278.014 543.282 277.103ZM540.32 289.805H542.921V280.312H540.32V289.805ZM544.812 285.058C544.812 287.754 546.748 290.014 549.273 290.014C550.583 290.014 551.59 289.349 552.007 288.741V289.805H554.608V275.565H552.007V281.375C551.59 280.767 550.583 280.103 549.273 280.103C546.748 280.103 544.812 282.362 544.812 285.058ZM552.216 285.058C552.216 286.539 551.248 287.64 549.824 287.64C548.4 287.64 547.432 286.539 547.432 285.058C547.432 283.577 548.4 282.476 549.824 282.476C551.248 282.476 552.216 283.577 552.216 285.058ZM556.53 285.058C556.53 287.754 558.466 290.014 560.991 290.014C562.301 290.014 563.308 289.349 563.725 288.741V289.805H566.326V280.312H563.725V281.375C563.308 280.767 562.301 280.103 560.991 280.103C558.466 280.103 556.53 282.362 556.53 285.058ZM563.934 285.058C563.934 286.539 562.966 287.64 561.542 287.64C560.118 287.64 559.15 286.539 559.15 285.058C559.15 283.577 560.118 282.476 561.542 282.476C562.966 282.476 563.934 283.577 563.934 285.058ZM575.102 289.71V287.412C574.798 287.526 574.456 287.583 574.038 287.583C572.918 287.583 572.425 287.128 572.425 285.97V282.59H575.102V280.312H572.425V277.673H569.823V280.312H567.906V282.59H569.823V286.482C569.823 288.798 571.437 289.919 573.45 289.919C574.171 289.919 574.684 289.843 575.102 289.71ZM586.188 285.058C586.188 282.286 583.948 280.103 581.195 280.103C578.442 280.103 576.201 282.286 576.201 285.058C576.201 287.83 578.442 290.014 581.195 290.014C583.948 290.014 586.188 287.83 586.188 285.058ZM578.821 285.058C578.821 283.596 579.828 282.533 581.195 282.533C582.562 282.533 583.549 283.596 583.549 285.058C583.549 286.52 582.562 287.583 581.195 287.583C579.828 287.583 578.821 286.52 578.821 285.058ZM588.064 289.805H590.665V285.267C590.665 283.71 591.481 282.742 592.715 282.742C593.133 282.742 593.494 282.818 593.892 282.951V280.312C593.57 280.217 593.285 280.198 593.019 280.198C591.956 280.198 590.988 280.9 590.665 281.831V280.312H588.064V289.805Z" fill="white"/>
</g>
<defs>
<filter id="filter0_d_7913_93300" x="-9.27971" y="-6.18647" width="655.559" height="467.559" filterUnits="userSpaceOnUse" color-interpolation-filters="sRGB">
<feFlood flood-opacity="0" result="BackgroundImageFix"/>
<feColorMatrix in="SourceAlpha" type="matrix" values="0 0 0 0 0 0 0 0 0 0 0 0 0 0 0 0 0 0 127 0" result="hardAlpha"/>
<feOffset dy="3.09324"/>
<feGaussianBlur stdDeviation="4.63985"/>
<feColorMatrix type="matrix" values="0 0 0 0 0 0 0 0 0 0.0705833 0 0 0 0 0.320833 0 0 0 0.12 0"/>
<feBlend mode="normal" in2="BackgroundImageFix" result="effect1_dropShadow_7913_93300"/>
<feBlend mode="normal" in="SourceGraphic" in2="effect1_dropShadow_7913_93300" result="shape"/>
</filter>
<linearGradient id="paint0_linear_7913_93300" x1="528.211" y1="215.002" x2="527.348" y2="189.112" gradientUnits="userSpaceOnUse">
<stop stop-color="#FFF4EB"/>
<stop offset="1" stop-color="#FFF4EB" stop-opacity="0"/>
</linearGradient>
<clipPath id="clip0_7913_93300">
<rect width="104.423" height="94.9303" fill="white" transform="translate(47.5298 151.57)"/>
</clipPath>
<clipPath id="clip1_7913_93300">
<rect width="104.423" height="94.9303" fill="white" transform="translate(256.28 151.57)"/>
</clipPath>
<clipPath id="clip2_7913_93300">
<rect width="104.423" height="94.9303" fill="white" transform="translate(475.564 151.57)"/>
</clipPath>
</defs>
</svg>
